<?xml version="1.0" encoding="UTF-8" standalone="no"?>
<svg width="110px" height="110px" viewBox="0 0 110 110" version="1.1" xmlns="http://www.w3.org/2000/svg" xmlns:xlink="http://www.w3.org/1999/xlink">
    <!-- Generator: Sketch 3.8.3 (29802) - http://www.bohemiancoding.com/sketch -->
    <title>Coding-Html</title>
    <desc>Created with Sketch.</desc>
    <defs></defs>
    <g id="Page-1" stroke="none" stroke-width="1" fill="none" fill-rule="evenodd">
        <g id="Coding-Html" transform="translate(-68.000000, -38.000000)">
            <g id="R-Green" transform="translate(68.000000, 38.000000)">
                <circle id="Oval" fill="#87E0C8" cx="55" cy="55" r="55"></circle>
                <g id="Group" transform="translate(23.000000, 30.000000)">
                    <path d="M64,43.727 C64,45.334 62.698,46.636 61.091,46.636 L2.909,46.636 C1.302,46.636 0,45.333 0,43.727 L0,3 C0,1.394 1.302,0.091 2.909,0.091 L61.091,0.091 C62.698,0.091 64,1.394 64,3 L64,43.727 L64,43.727 Z" id="Shape" fill="#0A3631"></path>
                    <rect id="Rectangle-path" fill="#D7FCF9" x="23.272" y="46.637" width="17.455" height="7.454"></rect>
                    <path d="M46.545,55.546 C46.545,56.349 45.894,57 45.09,57 L18.909,57 C18.106,57 17.454,56.349 17.454,55.546 C17.454,54.742 18.105,54.091 18.909,54.091 L45.091,54.091 C45.894,54.091 46.545,54.742 46.545,55.546 L46.545,55.546 Z" id="Shape" fill="#FFFFFF"></path>
                    <path d="M64,43.727 L64,35 L0,35 L0,43.727 C0,45.334 1.303,46.636 2.909,46.636 L61.091,46.636 C62.697,46.637 64,45.334 64,43.727 L64,43.727 Z" id="Shape" fill="#FFFFFF"></path>
                    <path d="M32,44.909 C29.845,44.909 28.091,43.155 28.091,41 C28.091,38.845 29.845,37.091 32,37.091 C34.155,37.091 35.909,38.845 35.909,41 C35.909,43.155 34.155,44.909 32,44.909 L32,44.909 Z M32,39.091 C30.947,39.091 30.091,39.947 30.091,41 C30.091,42.053 30.947,42.909 32,42.909 C33.053,42.909 33.909,42.053 33.909,41 C33.909,39.947 33.053,39.091 32,39.091 L32,39.091 Z" id="Shape" fill="#AAF0E9"></path>
                    <path d="M0,2.909 L0,34.909 L19.724,34.909 L54.633,0 L2.909,0 C1.303,0 0,1.303 0,2.909 L0,2.909 Z" id="Shape" fill="#14635B"></path>
                </g>
            </g>
        </g>
    </g>
</svg>