<?xml version="1.0" encoding="UTF-8" standalone="no"?>
<svg width="65px" height="63px" viewBox="0 0 65 63" version="1.1" xmlns="http://www.w3.org/2000/svg" xmlns:xlink="http://www.w3.org/1999/xlink">
    <!-- Generator: Sketch 3.8.3 (29802) - http://www.bohemiancoding.com/sketch -->
    <title>Group</title>
    <desc>Created with Sketch.</desc>
    <defs></defs>
    <g id="Page-1" stroke="none" stroke-width="1" fill="none" fill-rule="evenodd">
        <g id="Icons" transform="translate(-767.000000, -129.000000)">
            <g id="Group" transform="translate(768.000000, 129.000000)">
                <path d="M31.7627,0 C27.1667,0 23.6367,0.638 20.9107,1.614 C18.1427,2.605 16.2077,3.945 14.8627,5.337 C11.7677,8.542 11.7627,12 11.7627,12 L13.7627,50 L25.7627,50 L25.7627,15.173 C29.2007,16.481 33.6377,17.2 37.7627,17.587 L37.7627,50 L49.7627,50 L51.7627,12 C51.7627,12 51.7627,0 31.7627,0" id="Fill-645" fill="#0A3531"></path>
                <path d="M31.7627,0 C27.1667,0 23.6367,0.638 20.9107,1.614 C18.1427,2.605 16.2077,3.945 14.8627,5.337 C11.7677,8.542 11.7627,12 11.7627,12 L13.7627,50 L25.7627,50 L25.7627,15.173 C27.5537,15.854 29.6167,16.373 31.7627,16.771 L31.7627,0 Z" id="Fill-646" fill="#13635B"></path>
                <path d="M31.7627,46 L24.7627,45 L8.5217,48.873 C6.1507,49.583 4.2427,51.353 3.3537,53.663 L-0.2373,63 L31.7627,63 L31.7627,46 Z" id="Fill-647" fill="#0A3531"></path>
                <path d="M31.7627,46 L38.7627,45 L55.0037,48.873 C57.3747,49.583 59.2827,51.353 60.1717,53.663 L63.7627,63 L31.7627,63 L31.7627,46 Z" id="Fill-648" fill="#0A3531"></path>
                <path d="M21.7627,37.4326 L21.7627,50.9996 L29.7627,62.9996 L31.7627,62.9996 L31.7627,44.9996 C28.4787,43.9056 24.6037,41.8286 21.7627,37.4326" id="Fill-649" fill="#D7FDF9"></path>
                <path d="M31.7627,45 L31.7627,63 L33.7627,63 L41.7627,53 L41.7627,37.433 C38.9217,41.829 35.0467,43.905 31.7627,45" id="Fill-650" fill="#AAF0E9"></path>
                <path d="M46.7627,21 L45.7627,21 L45.7627,20.979 C45.7607,19.973 45.7447,18.981 45.7027,18.011 C37.6267,17.877 20.2757,16.72 19.7927,9.311 C18.0217,12.411 17.7717,16.569 17.7627,20.979 L17.7627,21 L16.7627,21 C15.7627,21 14.7627,22.111 14.7627,23.222 C14.7627,26.313 15.6267,30.353 18.9407,30.925 C21.3827,40.027 27.1587,43.465 31.7627,45 C36.3667,43.465 42.1427,40.027 44.5847,30.925 C47.8987,30.353 48.7627,26.313 48.7627,23.222 C48.7627,22.111 47.7627,21 46.7627,21" id="Fill-651" fill="#D7FDF9"></path>
                <path d="M19.7925,9.311 C18.0215,12.411 17.7715,16.569 17.7625,20.979 C17.7625,20.986 17.7635,20.993 17.7635,21 L16.7625,21 C15.7625,21 14.7625,22.111 14.7625,23.222 C14.7625,26.313 15.6275,30.353 18.9405,30.925 C21.3825,40.027 27.1595,43.465 31.7625,45 L31.7625,16.774 C25.5445,15.623 20.0615,13.434 19.7925,9.311" id="Fill-652" fill="#FFFFFF"></path>
                <path d="M26.7627,34 L36.7627,34 C36.7627,34 36.7627,37 31.7627,37 C26.7627,37 26.7627,34 26.7627,34" id="Fill-653" fill="#54CABE"></path>
                <path d="M28.7627,23 C28.7627,21.896 27.8667,21 26.7627,21 L26.7567,21 C26.7577,21.021 26.7627,21.042 26.7627,21.063 C26.7627,22.165 25.8707,23.059 24.7687,23.062 C24.8027,24.137 25.6797,25 26.7627,25 C27.8667,25 28.7627,24.104 28.7627,23" id="Fill-654" fill="#0A3531"></path>
                <path d="M38.7564,23 C38.7564,21.896 37.8604,21 36.7564,21 L36.7504,21 C36.7514,21.021 36.7564,21.042 36.7564,21.063 C36.7564,22.165 35.8644,23.059 34.7624,23.062 C34.7954,24.137 35.6734,25 36.7564,25 C37.8604,25 38.7564,24.104 38.7564,23" id="Fill-655" fill="#0A3531"></path>
                <path d="M48.2612,33.5229 C47.6252,34.1589 46.5942,34.1589 45.9572,33.5229 C45.3212,32.8869 45.3212,31.8549 45.9572,31.2189 C46.5942,30.5829 47.6252,30.5829 48.2612,31.2189 C48.8982,31.8549 48.8982,32.8869 48.2612,33.5229" id="Fill-656" fill="#00D7C1"></path>
                <path d="M17.2856,33.5229 C16.6496,34.1589 15.6176,34.1589 14.9816,33.5229 C14.3456,32.8869 14.3456,31.8549 14.9816,31.2189 C15.6176,30.5829 16.6496,30.5829 17.2856,31.2189 C17.9216,31.8549 17.9216,32.8869 17.2856,33.5229" id="Fill-657" fill="#00D7C1"></path>
                <polygon id="Fill-658" fill="#FFFFFF" points="21.752 40 23.763 51 31.763 63 29.763 63 16.763 55 20.763 50 11.763 48"></polygon>
                <polygon id="Fill-659" fill="#FFFFFF" points="41.7734 40 39.7624 51 31.7624 63 33.7624 63 46.7624 55 42.7624 50 51.7624 48"></polygon>
            </g>
        </g>
    </g>
</svg>